<?xml version="1.0" encoding="UTF-8"?>
<svg xmlns="http://www.w3.org/2000/svg" xmlns:xlink="http://www.w3.org/1999/xlink" width="24pt" height="24pt" viewBox="0 0 24 24" version="1.1">
<g id="surface22034326">
<path style=" stroke:none;fill-rule:nonzero;fill:rgb(100%,100%,100%);fill-opacity:1;" d="M 16.019531 0 C 14.660156 0.09375 13.203125 0.902344 12.300781 1.996094 C 11.511719 2.957031 10.847656 4.367188 11.101562 5.835938 C 10.875 5.765625 10.671875 5.757812 10.425781 5.671875 C 9.753906 5.433594 8.992188 5.175781 8.039062 5.175781 C 6.152344 5.175781 4.21875 6.296875 3 8.175781 C 1.226562 10.902344 1.582031 15.699219 4.273438 19.800781 C 4.75 20.519531 5.300781 21.304688 5.984375 21.929688 C 6.667969 22.554688 7.492188 23.03125 8.460938 23.039062 C 9.285156 23.050781 9.863281 22.773438 10.378906 22.546875 C 10.898438 22.316406 11.378906 22.113281 12.285156 22.109375 C 12.289062 22.109375 12.292969 22.109375 12.300781 22.109375 C 13.203125 22.101562 13.667969 22.300781 14.175781 22.53125 C 14.679688 22.757812 15.25 23.046875 16.078125 23.039062 C 17.066406 23.03125 17.90625 22.492188 18.601562 21.824219 C 19.296875 21.15625 19.867188 20.339844 20.339844 19.621094 C 21.015625 18.589844 21.289062 18.027344 21.808594 16.875 C 21.863281 16.753906 21.867188 16.617188 21.8125 16.496094 C 21.761719 16.371094 21.664062 16.277344 21.539062 16.230469 C 19.832031 15.585938 18.859375 14.074219 18.71875 12.480469 C 18.578125 10.882812 19.253906 9.242188 20.953125 8.308594 C 21.082031 8.242188 21.167969 8.125 21.199219 7.984375 C 21.226562 7.847656 21.191406 7.699219 21.105469 7.589844 C 19.882812 6.074219 18.167969 5.175781 16.484375 5.175781 C 15.414062 5.175781 14.625 5.429688 13.980469 5.671875 C 13.875 5.710938 13.792969 5.707031 13.695312 5.746094 C 14.347656 5.398438 14.925781 4.921875 15.359375 4.363281 C 16.148438 3.355469 16.753906 1.917969 16.53125 0.40625 C 16.492188 0.15625 16.269531 -0.0195312 16.019531 0 Z M 15.511719 1.140625 C 15.476562 2.109375 15.144531 3.058594 14.59375 3.765625 C 14.015625 4.507812 13.046875 5.019531 12.105469 5.175781 C 12.121094 4.242188 12.488281 3.277344 13.050781 2.59375 C 13.640625 1.882812 14.613281 1.367188 15.511719 1.140625 Z M 8.039062 6.136719 C 8.8125 6.136719 9.433594 6.335938 10.09375 6.570312 C 10.753906 6.804688 11.449219 7.078125 12.269531 7.078125 C 13.070312 7.078125 13.703125 6.800781 14.324219 6.570312 C 14.945312 6.335938 15.5625 6.136719 16.484375 6.136719 C 17.6875 6.136719 18.984375 6.757812 20.011719 7.84375 C 18.371094 9 17.605469 10.804688 17.761719 12.554688 C 17.914062 14.324219 18.980469 16 20.730469 16.875 C 20.351562 17.699219 20.101562 18.246094 19.546875 19.09375 C 19.085938 19.792969 18.539062 20.558594 17.941406 21.136719 C 17.339844 21.710938 16.703125 22.074219 16.066406 22.078125 C 15.449219 22.085938 15.097656 21.902344 14.566406 21.660156 C 14.03125 21.417969 13.34375 21.140625 12.285156 21.148438 C 11.226562 21.15625 10.53125 21.421875 9.988281 21.660156 C 9.449219 21.898438 9.09375 22.085938 8.476562 22.078125 C 7.820312 22.074219 7.210938 21.753906 6.628906 21.226562 C 6.050781 20.695312 5.527344 19.96875 5.070312 19.273438 C 2.550781 15.433594 2.347656 10.921875 3.796875 8.699219 C 4.855469 7.066406 6.542969 6.136719 8.039062 6.136719 Z M 8.039062 6.136719 "/>
</g>
</svg>
